# xmcd CD database file
#
# Track frame offsets:
#	150
#	17215
#	32712
#	49300
#	67762
#	83505
#	106407
#	126587
#	145180
#	164427
#	181437
#	194455
#	215010
#
# Disc length: 3119 seconds
#
# Revision: 0
# Processed by: cddbd v1.5.1PL0 Copyright (c) Steve Scherf et al.
# Submitted via: CDex 1.50beta10
#
DISCID=bc0c2d0d
DTITLE=Sunnyland Slim - Smile On My Face
DYEAR=1994
DGENRE=Blues
TTITLE0=Bessie Mae
TTITLE1=Everytime I Get to Drinking
TTITLE2=Hard Luck Blues
TTITLE3=Smile on My Face
TTITLE4=I Had It Hard
TTITLE5=Juanita
TTITLE6=Be My Baby
TTITLE7=Cryin' for My Baby
TTITLE8=Soft and Mellow Stella
TTITLE9=Lonely Girl
TTITLE10=Depression Blues
TTITLE11=Lee's Boogie
TTITLE12=Everytime I Get to Drinking
EXTD=YEAR: 1994
EXTT0=
EXTT1=
EXTT2=
EXTT3=
EXTT4=
EXTT5=
EXTT6=
EXTT7=
EXTT8=
EXTT9=
EXTT10=
EXTT11=
EXTT12=
PLAYORDER=
